<?xml version="1.0" encoding="utf-8"?>
<!-- Generator: Adobe Illustrator 19.0.0, SVG Export Plug-In . SVG Version: 6.00 Build 0)  -->
<svg version="1.1" id="图层_1" xmlns="http://www.w3.org/2000/svg" xmlns:xlink="http://www.w3.org/1999/xlink" x="0px" y="0px"
	 viewBox="0 0 203.8 175.4" style="enable-background:new 0 0 203.8 175.4;" xml:space="preserve">
<style type="text/css">
	.st0{fill:#FFFFFF;stroke:#000000;stroke-miterlimit:10;}
	.st1{font-family:'AdobeSongStd-Light-GBpc-EUC-H';}
	.st2{font-size:6px;}
	.st3{fill:none;stroke:#000000;stroke-miterlimit:10;}
	.st4{fill:none;stroke:#000000;stroke-miterlimit:10;stroke-dasharray:6.7185,6.7185;}
</style>
<rect id="XMLID_1_" x="45.2" y="106.2" class="st0" width="52.9" height="35.3"/>
<text id="XMLID_2_" transform="matrix(1 0 0 1 61.3046 121.8002)"><tspan x="0" y="0" class="st1 st2">Arduino</tspan><tspan x="0" y="7.2" class="st1 st2">  MCU</tspan></text>
<rect id="XMLID_3_" x="163.7" y="114" class="st3" width="30.3" height="19.7"/>
<text id="XMLID_4_" transform="matrix(1 0 0 1 166.345 121.5408)"><tspan x="0" y="0" class="st1 st2">  HC-06</tspan><tspan x="0" y="7.2" class="st1 st2">蓝牙模块</tspan></text>
<rect id="XMLID_6_" x="45.2" y="62.3" class="st0" width="52.9" height="24"/>
<text id="XMLID_5_" transform="matrix(1 0 0 1 51.06 71.9411)"><tspan x="0" y="0" class="st1 st2">       LM2596 </tspan><tspan x="0" y="7.2" class="st1 st2">直流降压电源板</tspan></text>
<rect id="XMLID_8_" x="45.2" y="29.2" class="st3" width="52.9" height="22.7"/>
<text id="XMLID_9_" transform="matrix(1 0 0 1 49.0599 38.4051)"><tspan x="0" y="0" class="st1 st2">           L298N </tspan><tspan x="0" y="7.2" class="st1 st2">电机驱动板模块</tspan></text>
<rect id="XMLID_10_" x="0.5" y="62.3" class="st3" width="33.4" height="24"/>
<text id="XMLID_11_" transform="matrix(1 0 0 1 3.5515 72.3733)"><tspan x="0" y="0" class="st1 st2">       9 V </tspan><tspan x="0" y="7.2" class="st1 st2">直流电源</tspan></text>
<rect id="XMLID_13_" x="45.2" y="155.2" class="st3" width="52.9" height="19.7"/>
<text id="XMLID_12_" transform="matrix(1.0904 0 0 1 48.1215 162.7319)"><tspan x="0" y="0" class="st1 st2">       HC-SR04</tspan><tspan x="0" y="7.2" class="st1 st2">超声波测距模块</tspan></text>
<g id="XMLID_14_">
	<g id="XMLID_25_">
		<line id="XMLID_28_" class="st3" x1="33.9" y1="74.3" x2="44.1" y2="74.3"/>
		<g id="XMLID_26_">
			<polygon id="XMLID_27_" points="42.1,76 43.8,74.3 42.1,72.6 43.5,72.6 45.2,74.3 43.5,76 			"/>
		</g>
	</g>
</g>
<line id="XMLID_15_" class="st3" x1="17.2" y1="62.3" x2="17.2" y2="40.5"/>
<g id="XMLID_16_">
	<g id="XMLID_46_">
		<line id="XMLID_49_" class="st3" x1="17.2" y1="40.5" x2="44.1" y2="40.5"/>
		<g id="XMLID_47_">
			<polygon id="XMLID_48_" points="42.1,42.2 43.8,40.5 42.1,38.9 43.5,38.9 45.2,40.5 43.5,42.2 			"/>
		</g>
	</g>
</g>
<g id="XMLID_17_">
	<g id="XMLID_33_">
		<line id="XMLID_36_" class="st3" x1="71.6" y1="86.3" x2="71.6" y2="105.1"/>
		<g id="XMLID_34_">
			<polygon id="XMLID_35_" points="69.9,103.1 71.6,104.8 73.3,103.1 73.3,104.5 71.6,106.2 69.9,104.5 			"/>
		</g>
	</g>
</g>
<line id="XMLID_18_" class="st3" x1="98.1" y1="114" x2="117.5" y2="114"/>
<line id="XMLID_19_" class="st3" x1="117.5" y1="114" x2="117.5" y2="40.5"/>
<g id="XMLID_20_">
	<g id="XMLID_41_">
		<line id="XMLID_44_" class="st3" x1="117.5" y1="40.5" x2="99.2" y2="40.5"/>
		<g id="XMLID_42_">
			<polygon id="XMLID_43_" points="101.2,38.9 99.5,40.5 101.2,42.2 99.8,42.2 98.1,40.5 99.8,38.9 			"/>
		</g>
	</g>
</g>
<rect id="XMLID_21_" x="45.2" y="0.5" class="st3" width="52.9" height="17.3"/>
<text id="XMLID_22_" transform="matrix(1 0 0 1 61.3044 11.172)" class="st1 st2">电机组</text>
<g id="XMLID_23_">
	<g id="XMLID_54_">
		<line id="XMLID_57_" class="st3" x1="71.6" y1="29.2" x2="71.6" y2="19"/>
		<g id="XMLID_55_">
			<polygon id="XMLID_56_" points="73.3,21 71.6,19.3 69.9,21 69.9,19.5 71.6,17.8 73.3,19.5 			"/>
		</g>
	</g>
</g>
<g id="XMLID_29_">
	<g id="XMLID_62_">
		<line id="XMLID_67_" class="st3" x1="71.6" y1="142.7" x2="71.6" y2="154.1"/>
		<g id="XMLID_65_">
			<polygon id="XMLID_66_" points="69.9,144.7 71.6,143 73.3,144.7 73.3,143.2 71.6,141.5 69.9,143.2 			"/>
		</g>
		<g id="XMLID_63_">
			<polygon id="XMLID_64_" points="69.9,152.1 71.6,153.8 73.3,152.1 73.3,153.5 71.6,155.2 69.9,153.5 			"/>
		</g>
	</g>
</g>
<g id="XMLID_30_">
	<g id="XMLID_70_">
		<line id="XMLID_75_" class="st3" x1="99.2" y1="123.9" x2="162.5" y2="123.9"/>
		<g id="XMLID_73_">
			<polygon id="XMLID_74_" points="101.2,125.6 99.5,123.9 101.2,122.2 99.8,122.2 98.1,123.9 99.8,125.6 			"/>
		</g>
		<g id="XMLID_71_">
			<polygon id="XMLID_72_" points="160.5,125.6 162.2,123.9 160.5,122.2 162,122.2 163.7,123.9 162,125.6 			"/>
		</g>
	</g>
</g>
<rect id="XMLID_31_" x="154.4" y="29.2" class="st3" width="49" height="30.7"/>
<text id="XMLID_37_" transform="matrix(1 0 0 1 159.6783 47.2075)" class="st1 st2">  Android 设备</text>
<g id="XMLID_38_">
	<g id="XMLID_80_">
		<line id="XMLID_85_" class="st3" x1="178.8" y1="59.9" x2="178.8" y2="62.9"/>
		<line id="XMLID_84_" class="st4" x1="178.8" y1="69.6" x2="178.8" y2="106.5"/>
		<line id="XMLID_83_" class="st3" x1="178.8" y1="109.9" x2="178.8" y2="112.9"/>
		<g id="XMLID_81_">
			<polygon id="XMLID_82_" points="177.2,110.9 178.8,112.6 180.5,110.9 180.5,112.3 178.8,114 177.2,112.3 			"/>
		</g>
	</g>
</g>
</svg>
